HIERARCHY
ROOT Hips
{
	OFFSET	0.00	0.00	0.00
	CHANNELS 6 Xposition Yposition Zposition Zrotation Xrotation Yrotation
	JOINT LeftUpLeg
	{
		OFFSET	 0.126116	-0.014019	-0.065224
		CHANNELS 3 Zrotation Xrotation Yrotation
		JOINT LeftLeg
		{
			OFFSET	 0.000000	 0.000000	 0.569914
			CHANNELS 3 Zrotation Xrotation Yrotation
			JOINT LeftFoot
			{
				OFFSET	 0.000000	 0.000000	 0.544423
				CHANNELS 3 Zrotation Xrotation Yrotation
				JOINT LeftToeBase
				{
					OFFSET	 0.000000	 0.000000	 0.207117
					CHANNELS 3 Zrotation Xrotation Yrotation
					End Site
					{
						OFFSET	 0.000000	 0.000000	 0.207117
					}
				}
			}
		}
	}
	JOINT RightUpLeg
	{
		OFFSET	-0.124023	-0.008373	-0.065224
		CHANNELS 3 Zrotation Xrotation Yrotation
		JOINT RightLeg
		{
			OFFSET	 0.000000	 0.000000	 0.570047
			CHANNELS 3 Zrotation Xrotation Yrotation
			JOINT RightFoot
			{
				OFFSET	 0.000000	 0.000000	 0.544354
				CHANNELS 3 Zrotation Xrotation Yrotation
				JOINT RightToeBase
				{
					OFFSET	 0.000000	 0.000000	 0.207540
					CHANNELS 3 Zrotation Xrotation Yrotation
					End Site
					{
						OFFSET	 0.000000	 0.000000	 0.207540
					}
				}
			}
		}
	}
	JOINT Spine
	{
		OFFSET	 0.000184	-0.007763	 0.117403
		CHANNELS 3 Zrotation Xrotation Yrotation
		JOINT Spine1
		{
			OFFSET	 0.000000	 0.000000	 0.137269
			CHANNELS 3 Zrotation Xrotation Yrotation
			JOINT Spine2
			{
				OFFSET	 0.000000	 0.000000	 0.156879
				CHANNELS 3 Zrotation Xrotation Yrotation
				JOINT LeftShoulder
				{
					OFFSET	 0.080501	-0.002496	 0.160144
					CHANNELS 3 Zrotation Xrotation Yrotation
					JOINT LeftArm
					{
						OFFSET	 0.000000	 0.000000	 0.164363
						CHANNELS 3 Zrotation Xrotation Yrotation
						JOINT LeftForeArm
						{
							OFFSET	 0.000000	 0.000000	 0.364576
							CHANNELS 3 Zrotation Xrotation Yrotation
							JOINT LeftHand
							{
								OFFSET	 0.000000	 0.000000	 0.360812
								CHANNELS 3 Zrotation Xrotation Yrotation
								JOINT LeftHandIndex1
								{
									OFFSET	 0.000000	 0.000000	 0.086006
									CHANNELS 3 Zrotation Xrotation Yrotation
									JOINT LeftHandIndex2
									{
										OFFSET	 0.000000	 0.000000	 0.047237
										CHANNELS 3 Zrotation Xrotation Yrotation
										JOINT LeftHandIndex3
										{
											OFFSET	-0.004284	-0.000551	 0.038165
											CHANNELS 3 Zrotation Xrotation Yrotation
											End Site
											{
												OFFSET	-0.004284	-0.000551	 0.038165
											}
										}
									}
								}
							}
						}
					}
				}
				JOINT Neck
				{
					OFFSET	 0.000000	 0.000000	 0.176489
					CHANNELS 3 Zrotation Xrotation Yrotation
					JOINT Head
					{
						OFFSET	 0.000000	-0.001747	 0.077940
						CHANNELS 3 Zrotation Xrotation Yrotation
						End Site
						{
							OFFSET	 0.000000	-0.001747	 0.077940
						}
					}
				}
				JOINT RightShoulder
				{
					OFFSET	-0.080363	 0.000306	 0.159706
					CHANNELS 3 Zrotation Xrotation Yrotation
					JOINT RightArm
					{
						OFFSET	 0.000000	 0.000000	 0.164196
						CHANNELS 3 Zrotation Xrotation Yrotation
						JOINT RightForeArm
						{
							OFFSET	 0.000000	 0.000000	 0.365611
							CHANNELS 3 Zrotation Xrotation Yrotation
							JOINT RightHand
							{
								OFFSET	 0.000000	 0.000000	 0.360648
								CHANNELS 3 Zrotation Xrotation Yrotation
								JOINT RightHandIndex1
								{
									OFFSET	 0.000000	 0.000000	 0.069977
									CHANNELS 3 Zrotation Xrotation Yrotation
									JOINT RightHandIndex2
									{
										OFFSET	 0.000000	 0.000000	 0.052305
										CHANNELS 3 Zrotation Xrotation Yrotation
										JOINT RightHandIndex3
										{
											OFFSET	 0.009002	-0.000782	 0.042196
											CHANNELS 3 Zrotation Xrotation Yrotation
											End Site
											{
												OFFSET	 0.009002	-0.000782	 0.042196
											}
										}
									}
								}
							}
						}
					}
				}
			}
		}
	}
}
MOTION
Frames:    13
Frame Time: 0.03333334
-0.400236	 0.184146	 1.251114	-173.663900	 7.881669	 14.646750	 37.914480	-13.981680	 167.846100	-9.113866	-44.690780	-6.837258	 142.485000	 80.383280	-153.911700	-2.385833	 28.452760	 0.000004	-31.149360	-34.924160	 152.882700	 6.016603	-50.590190	 3.475005	-3.383896	 72.232690	 22.991450	 2.384659	 28.388700	-0.000001	 78.909070	-18.010250	 1.262511	 44.972770	 21.002290	 17.882450	-6.093472	-2.321745	-15.201050	-91.776210	 78.527380	-180.000000	-12.041540	 2.904050	-48.050190	 1.225254	-2.092322	-33.565120	-1.029665	-16.895970	-2.246197	-4.130319	 21.525730	 0.991547	-5.167930	 0.731704	 3.519349	-1.378229	 35.397820	-2.634230	-17.647490	 7.783392	 7.830658	-22.803270	-22.501700	-15.980560	 89.782170	 78.319320	 179.992300	 46.662980	 3.401432	-9.014037	-15.801330	-7.392955	 37.416280	-19.888850	-15.518690	-87.435870	 5.716227	 19.173190	-3.685159	 5.027444	 0.246877	-9.377972	-2.350882	 35.473990	 5.254307
-0.411284	 0.204588	 1.256022	-172.614800	 7.714396	 12.245390	 39.631130	-9.194060	 169.434400	-9.165752	-40.059310	-6.295621	 141.480100	 80.328830	-152.388500	-2.385833	 28.452760	 0.000004	-28.427240	-34.771840	 157.169800	 5.932193	-50.349770	 3.397876	 0.073098	 73.345850	 17.728610	 2.384659	 28.388700	-0.000001	 75.130900	-15.340440	 2.983855	 41.337740	 17.701820	 20.078180	-5.054450	-0.970560	-14.897360	-91.776160	 78.527350	 180.000000	-13.581530	 1.555082	-40.844060	 2.485533	-3.330719	-37.903920	 1.502451	-22.970610	-1.839401	-4.130319	 21.525730	 0.991547	-5.167930	 0.731704	 3.519349	-1.378229	 35.397820	-2.634230	-16.952330	 7.677500	 8.236156	-22.070850	-22.519630	-15.942070	 89.782150	 78.305340	 179.993200	 55.897040	-8.464938	-3.596309	-17.539530	-6.284274	 30.234010	-35.021920	-4.799474	-72.186070	 5.716227	 19.173190	-3.685159	 5.027444	 0.246877	-9.377972	-2.350882	 35.473990	 5.254307
-0.416839	 0.216928	 1.259201	-171.584800	 7.247416	 11.351670	 40.776640	-6.290176	 169.249000	-9.299737	-36.766150	-5.940011	 137.404700	 80.765220	-148.124000	-2.385833	 28.452760	 0.000004	-26.476000	-34.167620	 159.428200	 5.607686	-50.164860	 3.139038	 4.118309	 74.496570	 12.236600	 2.384659	 28.388700	-0.000001	 71.645940	-13.854490	 3.226692	 39.260910	 14.853800	 21.805460	-4.099447	 0.568925	-14.906470	-91.776190	 78.527400	-180.000000	-15.139310	 1.751705	-35.412550	 2.764229	-4.312806	-43.585450	 3.358463	-27.896590	-1.424962	-4.130319	 21.525730	 0.991547	-5.167930	 0.731704	 3.519349	-1.378229	 35.397820	-2.634230	-16.263700	 7.714438	 8.343244	-21.530370	-22.671950	-15.712440	 89.782100	 78.294170	 179.993700	 54.224370	-11.802330	 8.698784	-20.459910	-0.364891	 4.070673	-38.958900	-15.344220	-57.345780	 5.716227	 19.173190	-3.685159	 5.027444	 0.246877	-9.377972	-2.350882	 35.473990	 5.254307
-0.420254	 0.225186	 1.262092	-170.520200	 6.178892	 10.600120	 41.545450	-3.400414	 168.783600	-9.696316	-33.459920	-5.697997	 127.554700	 81.308730	-137.870500	-2.385833	 28.452760	 0.000004	-24.752840	-33.355680	 161.502400	 5.361756	-49.952370	 2.940689	 8.065107	 74.930910	 7.311998	 2.384659	 28.388700	-0.000001	 68.218470	-11.740250	 3.237059	 37.554950	 11.343240	 23.635410	-2.998708	 2.337800	-14.798310	-91.776250	 78.527380	-180.000000	-16.701590	 2.436714	-31.859380	 2.697964	-5.034743	-48.220090	 4.986928	-32.536890	-1.025330	-4.130319	 21.525730	 0.991547	-5.167930	 0.731704	 3.519349	-1.378229	 35.397820	-2.634230	-15.438430	 8.711658	 8.275513	-21.075120	-23.592560	-15.805090	 89.782170	 78.293080	 179.993500	 49.871030	-13.718060	 7.075560	-21.436150	-0.545357	 5.177209	-42.600330	-17.259820	-55.758000	 5.716227	 19.173190	-3.685159	 5.027444	 0.246877	-9.377972	-2.350882	 35.473990	 5.254307
-0.420390	 0.227464	 1.263347	-169.832400	 5.334580	 9.814717	 42.239820	-1.954998	 168.571500	-10.192620	-32.181760	-5.776271	 126.654600	 81.319130	-136.500300	-2.385833	 28.452760	 0.000004	-22.450080	-33.025000	 163.151600	 4.448798	-49.519880	 2.226532	 11.652510	 74.643610	 3.576185	 2.384659	 28.388700	-0.000001	 66.201100	-9.545740	 3.309901	 36.678750	 9.034719	 24.746180	-2.234142	 3.431794	-14.353390	-91.776180	 78.527430	 180.000000	-17.710630	 2.602142	-31.500190	 2.876853	-5.422110	-49.123730	 6.319256	-35.240820	-0.532218	-4.130319	 21.525730	 0.991547	-5.167930	 0.731704	 3.519349	-1.378229	 35.397820	-2.634230	-14.443840	 8.967806	 7.370095	-20.411180	-23.710480	-14.758790	 89.782140	 78.294560	 179.992800	 46.932670	-13.708220	 6.341643	-21.963860	-0.675024	 5.835195	-43.861240	-18.444320	-55.439700	 5.716227	 19.173190	-3.685159	 5.027444	 0.246877	-9.377972	-2.350882	 35.473990	 5.254307
-0.420347	 0.228103	 1.264309	-169.284000	 4.645214	 10.003570	 43.560870	-1.970239	 167.509200	-11.063700	-31.882110	-6.201417	 125.192500	 81.412160	-134.474600	-2.385833	 28.452760	 0.000004	-20.791350	-32.282710	 163.524400	 3.777061	-48.763890	 1.695696	 13.892470	 74.317490	 1.087667	 2.384659	 28.388700	-0.000001	 64.398940	-8.045003	 2.509908	 36.323550	 6.858068	 25.608230	-1.392904	 4.577761	-13.984780	-91.776190	 78.527420	 180.000000	-18.922930	 3.742408	-32.061320	 3.101564	-5.630650	-48.769150	 7.537858	-37.693170	-0.022177	-4.130319	 21.525730	 0.991547	-5.167930	 0.731704	 3.519349	-1.378229	 35.397820	-2.634230	-13.573280	 8.379491	 7.336308	-19.674520	-23.039480	-14.332870	 89.782090	 78.292720	 179.992600	 44.913570	-13.383060	 6.104627	-22.575360	-0.787709	 6.338829	-43.805990	-19.585140	-53.896510	 5.716227	 19.173190	-3.685159	 5.027444	 0.246877	-9.377972	-2.350882	 35.473990	 5.254307
-0.420242	 0.227772	 1.264983	-169.404500	 4.065250	 9.784004	 44.663030	-1.450064	 167.107500	-11.962080	-31.432710	-6.607546	 128.697900	 81.310810	-137.138100	-2.385833	 28.452760	 0.000004	-19.776440	-31.854270	 164.093900	 3.188318	-48.511800	 1.247893	 14.868400	 73.935730	 0.270663	 2.384659	 28.388700	-0.000001	 64.071420	-6.570834	 2.472515	 36.242260	 5.408634	 26.009370	-0.980200	 5.193854	-13.555710	-91.776190	 78.527360	-180.000000	-19.450240	 3.976157	-32.606980	 3.197275	-5.681921	-48.413070	 7.852681	-38.651630	 0.143460	-4.130319	 21.525730	 0.991547	-5.167930	 0.731704	 3.519349	-1.378229	 35.397820	-2.634230	-13.231160	 8.442425	 7.608056	-19.367360	-22.732400	-15.438410	 89.782160	 78.292560	 179.992400	 44.484800	-12.995040	 5.948075	-23.089850	-0.840516	 6.550608	-43.043010	-19.179120	-52.300720	 5.716227	 19.173190	-3.685159	 5.027444	 0.246877	-9.377972	-2.350882	 35.473990	 5.254307
-0.420120	 0.228060	 1.265508	-170.100500	 4.336036	 9.758782	 45.861620	-1.713412	 167.270000	-12.628370	-31.233530	-6.928719	 130.314900	 80.012470	-138.270500	-2.385833	 28.452760	 0.000004	-19.158760	-32.318380	 164.013700	 2.665440	-48.515040	 0.856146	 17.273200	 73.266610	-2.249429	 2.384659	 28.388700	-0.000001	 64.875700	-7.409376	 2.933070	 36.164410	 6.023071	 25.557520	-1.180804	 4.852559	-13.657890	-91.776160	 78.527400	 180.000000	-19.211580	 3.950122	-32.643240	 3.123202	-5.630418	-48.481930	 7.111838	-38.136670	-0.134568	-4.130319	 21.525730	 0.991547	-5.167930	 0.731704	 3.519349	-1.378229	 35.397820	-2.634230	-13.468470	 8.442778	 7.754119	-19.535490	-22.761080	-15.669060	 89.782150	 78.292940	 179.992600	 45.210380	-12.950980	 6.175998	-23.059060	-0.848030	 6.583882	-41.939270	-17.655260	-50.618090	 5.716227	 19.173190	-3.685159	 5.027444	 0.246877	-9.377972	-2.350882	 35.473990	 5.254307
-0.420401	 0.228056	 1.266049	-170.360400	 4.168498	 10.345660	 45.806800	-2.065997	 166.825000	-13.332620	-31.321500	-7.327455	 132.376800	 79.189370	-139.845400	-2.385833	 28.452760	 0.000004	-20.064690	-31.572010	 163.282500	 2.801374	-48.113120	 0.952039	 15.950550	 73.325450	-0.895349	 2.384659	 28.388700	-0.000001	 64.901520	-7.301863	 2.577040	 36.282760	 5.010994	 25.579910	-0.993184	 5.511718	-13.782580	-91.776160	 78.527400	 180.000000	-18.476260	 3.278765	-33.040580	 3.219753	-5.663013	-48.080390	 6.183712	-37.166730	-0.375283	-4.130319	 21.525730	 0.991547	-5.167930	 0.731704	 3.519349	-1.378229	 35.397820	-2.634230	-13.169180	 8.966989	 6.964957	-19.599660	-23.400270	-15.547480	 89.782110	 78.288750	 179.992900	 47.424560	-12.719610	 6.893649	-23.424720	-0.879543	 6.704777	-41.415140	-15.457050	-47.479220	 5.716227	 19.173190	-3.685159	 5.027444	 0.246877	-9.377972	-2.350882	 35.473990	 5.254307
-0.420145	 0.228409	 1.267115	-170.794700	 4.433413	 10.603430	 46.008690	-2.432003	 166.951100	-13.487840	-31.267780	-7.400457	 133.070900	 78.223900	-140.445800	-2.385833	 28.452760	 0.000004	-20.490380	-31.539180	 162.819000	 2.876461	-47.843870	 1.003683	 16.384200	 73.292650	-1.450314	 2.384659	 28.388700	-0.000001	 65.234470	-8.284185	 2.842248	 36.219570	 5.316170	 25.171970	-1.072224	 5.408219	-14.092170	-91.776210	 78.527420	-180.000000	-17.712490	 2.831414	-33.437790	 3.427446	-5.826115	-47.813160	 5.476262	-36.142730	-0.462036	-4.130319	 21.525730	 0.991547	-5.167930	 0.731704	 3.519349	-1.378229	 35.397820	-2.634230	-13.255780	 8.960251	 6.922881	-19.744010	-23.570110	-15.960370	 89.782090	 78.288110	 179.993100	 50.130220	-12.215380	 7.781483	-23.507380	-0.923734	 6.884953	-41.084760	-13.526120	-44.684070	 5.716227	 19.173190	-3.685159	 5.027444	 0.246877	-9.377972	-2.350882	 35.473990	 5.254307
-0.419190	 0.228523	 1.269305	-171.624300	 4.630291	 10.641960	 46.043510	-2.304394	 167.424400	-13.516070	-30.871390	-7.332010	 132.775500	 78.338670	-139.831100	-2.385833	 28.452760	 0.000004	-21.235060	-31.337780	 162.555500	 3.251510	-47.489380	 1.274606	 15.068990	 73.311020	 0.010742	 2.384659	 28.388700	-0.000001	 66.154590	-9.469457	 3.653734	 36.078090	 6.263669	 24.467150	-1.542151	 4.586007	-14.617600	-91.776120	 78.527350	 179.999900	-16.134030	 1.928650	-34.312690	 3.727276	-6.036118	-47.261100	 4.257079	-34.151040	-0.637460	-4.130319	 21.525730	 0.991547	-5.167930	 0.731704	 3.519349	-1.378229	 35.397820	-2.634230	-13.493870	 7.872012	 6.519766	-19.946620	-23.334760	-14.968200	 89.782100	 78.288560	 179.993900	 54.275180	-11.020340	 9.104673	-23.043600	-1.008150	 7.236464	-40.859720	-11.915010	-41.435490	 5.716227	 19.173190	-3.685159	 5.027444	 0.246877	-9.377972	-2.350882	 35.473990	 5.254307
-0.418415	 0.228168	 1.271097	-171.539500	 4.965799	 11.245190	 45.418580	-3.050836	 167.353800	-13.216460	-31.117970	-7.222452	 129.819300	 79.209690	-137.138600	-2.385833	 28.452760	 0.000004	-22.412940	-30.811660	 161.717900	 3.781702	-46.771020	 1.646390	 12.093020	 73.548260	 3.059632	 2.384659	 28.388700	-0.000001	 65.662250	-10.352210	 3.756515	 36.177350	 5.611697	 24.199480	-1.179370	 5.111701	-15.176570	-91.776120	 78.527400	 179.999900	-14.814600	 1.016009	-35.816690	 4.580825	-6.552024	-45.965550	 4.123751	-32.298090	-0.351419	-4.130319	 21.525730	 0.991547	-5.167930	 0.731704	 3.519349	-1.378229	 35.397820	-2.634230	-13.216090	 6.990069	 6.646554	-19.624340	-22.580510	-15.566090	 89.782100	 78.203890	 180.000000	 58.739240	-9.425628	 10.440790	-23.389310	-1.113924	 7.621745	-39.718360	-9.144175	-36.883340	 5.716227	 19.173190	-3.685159	 5.027444	 0.246877	-9.377972	-2.350882	 35.473990	 5.254307
-0.417376	 0.226766	 1.273377	-171.983800	 4.827259	 12.100210	 44.347370	-3.384209	 167.009800	-12.398980	-31.331560	-6.824172	 126.411600	 80.508500	-134.230900	-2.385833	 28.452760	 0.000004	-23.663720	-29.561490	 160.740900	 4.293219	-45.886510	 1.989914	 8.651132	 73.935820	 6.764683	 2.384659	 28.388700	-0.000001	 65.690320	-11.004380	 2.878401	 36.424270	 5.693019	 24.127890	-0.985075	 5.406996	-15.519060	-91.776180	 78.527380	-180.000000	-13.120290	-0.326438	-37.942750	 5.426343	-6.935142	-44.343480	 3.827112	-30.137500	-0.215818	-4.130319	 21.525730	 0.991547	-5.167930	 0.731704	 3.519349	-1.378229	 35.397820	-2.634230	-13.132190	 6.486952	 6.937338	-19.497590	-21.934030	-16.596160	 89.782070	 78.203850	-180.000000	 63.966370	-7.031546	 11.425260	-24.074520	-1.247211	 8.070805	-38.814480	-7.365639	-33.789600	 5.716227	 19.173190	-3.685159	 5.027444	 0.246877	-9.377972	-2.350882	 35.473990	 5.254307
